<svg width="710" height="109" viewBox="0 0 710 109" fill="none" xmlns="http://www.w3.org/2000/svg">
<path d="M6 18.95V107H0V2H11.25L50.25 87.2C53.85 71.6 61.05 58.25 67.65 45.95C75.6 31.25 83.25 17.3 83.25 2H98.25V107H86.25V20.3C83.25 29.9 78.15 39.2 73.05 48.8C63.6 66.2 54 84.05 54 107H48L6 18.95Z" fill="#2E2B3F"/>
<path d="M122.314 107V2H134.314V107H122.314Z" fill="#2E2B3F"/>
<path d="M230.35 85.85V2H236.35V107H230.35L164.35 14.75V107H158.35V2H169.6L230.35 85.85Z" fill="#2E2B3F"/>
<path d="M295.853 2C324.203 2 347.303 25.55 347.303 54.5C347.303 83.45 324.203 107 295.853 107H260.303V2H295.853ZM296.603 101C317.603 101 334.853 80.15 334.853 54.5C334.853 28.85 317.603 8 296.603 8C288.653 8 280.253 8 272.303 8V101C280.253 101 288.653 101 296.603 101Z" fill="#2E2B3F"/>
<path d="M431.332 8H377.332V69.5C378.982 66.2 381.082 63.35 383.482 60.95C393.232 51.35 405.832 51.5 414.382 51.5H425.182V57.5H414.382C406.432 57.5 395.632 57.35 387.832 65.15C380.782 72.05 377.332 84.05 377.332 101V107H365.332V2H431.332V8Z" fill="#2E2B3F"/>
<path d="M514.853 0.5C534.953 0.5 551.303 17.3 551.303 38C551.303 58.7 534.953 75.5 514.853 75.5C494.753 75.5 478.403 58.7 478.403 38C478.403 17.3 494.753 0.5 514.853 0.5ZM515.153 69.5C530.153 69.5 539.303 54.95 539.303 38C539.303 21.05 530.153 6.5 515.153 6.5C500.153 6.5 490.403 21.05 490.403 38C490.403 54.95 500.153 69.5 515.153 69.5ZM550.403 94.55C536.453 105.05 521.903 99.95 506.753 96.5C491.903 92.6 473.603 90.95 459.803 99.65V2H447.803V107H459.803C473.453 97.85 489.803 103.55 504.803 105.95C520.703 109.55 539.903 111.5 552.653 97.7L550.403 94.55Z" fill="#2E2B3F"/>
<path d="M667.509 100.4L703.359 2H709.659L671.559 107H657.159L634.509 45.05L612.009 107H597.609L559.359 2H572.109L607.959 100.4L631.359 36.35L618.909 2H631.659L667.509 100.4Z" fill="#2E2B3F"/>
</svg>
